<?xml version="1.0" encoding="utf-8"?>
<!-- Generator: Adobe Illustrator 27.5.0, SVG Export Plug-In . SVG Version: 6.00 Build 0)  -->
<svg version="1.1" xmlns="http://www.w3.org/2000/svg" xmlns:xlink="http://www.w3.org/1999/xlink" x="0px" y="0px"
	 viewBox="0 0 500 500" style="enable-background:new 0 0 500 500;" xml:space="preserve">
<g id="BACKGROUND">
	
		<linearGradient id="SVGID_1_" gradientUnits="userSpaceOnUse" x1="250" y1="81.4585" x2="250" y2="544.8665" gradientTransform="matrix(1 0 0 -1 0 502)">
		<stop  offset="0" style="stop-color:#378194"/>
		<stop  offset="0.2438" style="stop-color:#3A8799"/>
		<stop  offset="0.5611" style="stop-color:#4397A7"/>
		<stop  offset="0.9177" style="stop-color:#52B2BE"/>
		<stop  offset="1" style="stop-color:#56B9C4"/>
	</linearGradient>
	<rect style="fill:url(#SVGID_1_);" width="500" height="500"/>
</g>
<g id="OBJECTS">
	<g>
		<defs>
			<rect id="SVGID_00000005252002358531213640000006539122614395912373_" width="500" height="500"/>
		</defs>
		<clipPath id="SVGID_00000181790857135042828180000009240677973451367818_">
			<use xlink:href="#SVGID_00000005252002358531213640000006539122614395912373_"  style="overflow:visible;"/>
		</clipPath>
		<g style="clip-path:url(#SVGID_00000181790857135042828180000009240677973451367818_);">
			<g>
				<g>
					<g>
						<polyline style="fill:#3E8A9C;" points="461.1,-49.92 484.78,368.97 507.86,362.87 479.19,-52.97 						"/>
						<g>
							<polyline style="fill:#3E8A9C;" points="121.05,-33.07 108.64,387.1 140.65,381.92 145.96,-35.39 							"/>
							<polygon style="fill:#3E8A9C;" points="138.16,36.12 182.43,-18.5 180.69,-22.41 140.76,16.68 							"/>
							<polygon style="fill:#3E8A9C;" points="125.44,69.44 90.15,-7.14 93.72,-7.69 127.3,49.91 							"/>
						</g>
						<g>
							<polyline style="fill:#3E8A9C;" points="241.82,-33 233.29,387.26 265.25,381.79 266.71,-35.55 							"/>
							<polygon style="fill:#3E8A9C;" points="259.22,47.8 302.15,-13.88 299.35,-17.14 258.75,28.93 							"/>
						</g>
						<g>
							<polyline style="fill:#3E8A9C;" points="336.9,-32.61 347.78,386.81 371.04,381.42 355.08,-35.1 							"/>
							<polygon style="fill:#3E8A9C;" points="350.94,57.95 308.01,-3.72 310.81,-6.99 351.41,39.08 							"/>
						</g>
					</g>
					<g>
						<g>
							<g>
								<g>
									<polygon style="fill:#F0E1DF;" points="80.53,-24 74.77,124.86 74.5,132 65.83,356.22 23.62,368.8 9.1,373.13 0,375.85 
										0.39,371.71 18.15,187.64 18.86,180.34 30.49,59.73 31.07,53.66 36.04,2.15 36.47,-2.27 38.21,-20.23 									"/>
									<polygon style="fill:#E0C8C5;" points="47.43,-21.05 46.26,-1.93 46.14,0.03 42.74,55.8 42.54,58.9 35.06,181.45 
										34.72,186.98 23.62,368.8 23.22,375.44 9.1,373.13 0.39,371.71 18.15,187.64 18.86,180.34 30.49,59.73 31.07,53.66 
										36.04,2.15 36.47,-2.27 38.21,-20.23 									"/>
								</g>
								<g>
									<path style="fill:#996B71;" d="M55.42,58.56c-4.29,0.02-8.59,0.13-12.88,0.34c-4.03,0.2-8.04,0.47-12.05,0.82l0.58-6.07
										c3.89,0.65,7.79,1.36,11.67,2.14C46.98,56.63,51.21,57.56,55.42,58.56z"/>
									<path style="fill:#996B71;" d="M74.77,124.86L74.5,132c-9.95-2.07-20.17-2.54-30.19-1.39
										C54.21,127.48,64.45,125.56,74.77,124.86z"/>
									<path style="fill:#996B71;" d="M36.04,2.15c3.34-0.86,6.71-1.58,10.1-2.12c2.59-0.43,5.2-0.76,7.81-1
										c-2.56-0.43-5.12-0.74-7.7-0.96C43-2.21,39.74-2.32,36.47-2.27L36.04,2.15z"/>
									<path style="fill:#996B71;" d="M18.15,187.64c5.52-0.22,11.04-0.44,16.57-0.66c6.88-0.28,13.76-0.55,20.64-0.82
										c-6.63-2.18-13.44-3.75-20.3-4.71c-5.38-0.75-10.79-1.13-16.2-1.11"/>
									<path style="fill:#996B71;" d="M66.85,247.32c-15.95-3.48-32.53-3.22-48.28,0.76C34.57,251.13,50.93,251.76,66.85,247.32z"
										/>
								</g>
							</g>
							<g>
								<g>
									<polygon style="fill:#F0E1DF;" points="479.54,322.7 426.86,329.71 426.7,325.43 420.01,138.94 419.85,134.35 
										415.71,19.07 415.57,15.22 414.11,-25.6 419.87,-26.05 448.89,-28.31 458.39,80.5 458.84,85.54 468,190.62 468.32,194.19 
										472.17,238.3 472.56,242.76 									"/>
									<polygon style="fill:#E0C8C5;" points="448.1,319.12 426.7,325.43 420.01,138.94 419.85,134.35 415.71,19.07 415.57,15.22 
										414.11,-25.6 419.87,-26.05 423.21,14.76 423.37,16.74 429.13,87.18 429.26,88.76 432.92,133.57 433.33,138.46 
										438.25,198.7 438.45,201.2 442.1,245.64 442.29,248.03 									"/>
								</g>
								<g>
									<path style="fill:#996B71;" d="M423.45,40.18c9.46-2.18,19.29-2.76,28.95-1.71C443.54,42.05,433.89,43.67,423.45,40.18z"/>
									<path style="fill:#996B71;" d="M432.69,14.88c-3.13,0.46-6.25,1.09-9.32,1.87c-2.59,0.67-5.14,1.43-7.66,2.32l-0.14-3.85
										c2.54-0.25,5.09-0.4,7.63-0.46C426.37,14.66,429.54,14.7,432.69,14.88z"/>
									<path style="fill:#996B71;" d="M458.84,85.54c-9.9,0.56-19.78,1.62-29.57,3.22c-3.18,0.51-6.37,1.08-9.54,1.71
										c3.1-1.19,6.24-2.28,9.4-3.28c9.55-3.04,19.35-5.29,29.26-6.69L458.84,85.54z"/>
									<path style="fill:#996B71;" d="M420.01,138.94c4.43-0.1,8.89-0.21,13.32-0.47c7.96-0.46,15.88-1.43,23.48-3.78
										c-7.92-0.92-15.91-1.29-23.88-1.11c-4.37,0.09-8.73,0.35-13.07,0.77L420.01,138.94z"/>
									<path style="fill:#996B71;" d="M468.32,194.19c-9.08,4.19-19.36,6.27-29.87,7.01c-2.08,0.15-4.16,0.24-6.25,0.29
										c1.99-0.99,4-1.93,6.05-2.79c9.48-4.06,19.52-6.79,29.75-8.08L468.32,194.19z"/>
									<path style="fill:#996B71;" d="M472.56,242.76c-10.01,2.16-20.1,3.92-30.27,5.28c-1.79,0.25-3.6,0.48-5.4,0.69
										c1.68-1.15,3.42-2.17,5.21-3.08c9.13-4.65,19.61-6.36,30.07-7.35"/>
								</g>
							</g>
						</g>
						<g>
							<g>
								<path style="fill:#296978;" d="M96.87,390.16c-35.48,0.33-70.95,2.46-105.26,8.79c-11.96-49.56-22.11-99.56-30.06-150.29
									c3.33-2.49,7.12-4.32,11.11-5.45c7.19-2.04,15.02-1.84,22.01,0.83c10.86,4.16,19.29,14.13,21.18,27.75
									c6.22-0.6,12.65,1.88,16.85,6.5s6.07,11.26,1.23,18.06c13.12,1.15,25.43,9.25,31.69,20.84c1.49,2.75,2.62,5.68,3.43,8.73
									c2.58,9.82,1.76,20.9-1.69,31.51c4.65-4.91,12.73-5.59,18.76-2.52c6.04,3.06,10.08,9.22,11.84,15.75
									C99.71,377.19,99.42,384.11,96.87,390.16z"/>
								<path style="fill:#53A3AD;" d="M69.05,325.92c-3.2-3.55-6.84-6.51-10.89-8.79c-9.15-5.15-20.27-6.69-30.48-4.24
									c-0.33-9.85-1.46-17.34-5.53-22.74s-10.96-8.54-17.7-8.09c0.89-11.66-3.33-22.98-11.39-30.25
									c-5.58-5.04-12.91-8.04-20.4-8.6c7.19-2.04,15.02-1.84,22.01,0.83c10.86,4.16,19.29,14.13,21.18,27.75
									c6.22-0.6,12.65,1.88,16.85,6.5s6.07,11.26,1.23,18.06c13.12,1.15,25.43,9.25,31.69,20.84
									C67.11,319.94,68.24,322.87,69.05,325.92z"/>
							</g>
							<g>
								<path style="fill:#296978;" d="M529.44,314.56c-1.41,20.91-2.82,41.81-4.17,62.65c-61.19-6.9-122.86-9.63-181.16-14.77
									c-0.57-6.48,1.94-13.16,6.63-17.67c4.68-4.51,11.46-6.75,19.15-4.1c0.9-9.55,3.81-19.08,9.46-26.84
									c1.96-2.69,4.28-5.16,6.87-7.27c4.86-4,10.67-6.78,16.89-7.6c9.52-1.25,19.82,2.54,26.36,9.45
									c5.5-4.69,12.71-7.34,19.95-7.32c7.23,0.01,14.43,2.69,18.53,7.98c3.42-14.38,18.22-25.13,32.96-23.92
									c6.44,0.53,12.52,3.31,17.4,7.55l0.01,0.01C524.61,298.16,528.91,306.02,529.44,314.56z"/>
								<path style="fill:#53A3AD;" d="M518.31,292.7c-6.6-1.14-13.49-0.59-19.75,1.77c-11.87,4.47-21.11,15.29-23.67,27.71
									c-13.17-10.21-33.85-8.97-45.71,2.73c-11.06-11.58-26.99-18.13-42.96-18.35c4.86-4,10.67-6.78,16.89-7.6
									c9.52-1.25,19.82,2.54,26.36,9.45c5.5-4.69,12.71-7.34,19.95-7.32c7.23,0.01,14.43,2.69,18.53,7.98
									c3.42-14.38,18.22-25.13,32.96-23.92C507.35,285.68,513.43,288.46,518.31,292.7z"/>
							</g>
						</g>
					</g>
				</g>
				<g>
					<path style="fill:#8FB366;" d="M0,500V384.93c277.87-19.44,411.26-37.12,500-20.02V500H0z"/>
					<g>
						<g>
							<path style="fill:none;stroke:#5B8A4C;stroke-width:2;stroke-linecap:round;stroke-miterlimit:10;" d="M33.67,469.04
								c1.84,2.34,2.74,5.39,2.47,8.35"/>
							<path style="fill:none;stroke:#5B8A4C;stroke-width:2;stroke-linecap:round;stroke-miterlimit:10;" d="M45.54,472.62
								c-2.65,0.07-5.16,1.93-5.99,4.45"/>
							<path style="fill:none;stroke:#5B8A4C;stroke-width:2;stroke-linecap:round;stroke-miterlimit:10;" d="M26.96,472.66
								c2.55,0.53,4.52,3.05,4.42,5.64"/>
						</g>
						<g>
							<path style="fill:none;stroke:#5B8A4C;stroke-width:2;stroke-linecap:round;stroke-miterlimit:10;" d="M43.95,394.32
								c1.84,2.34,2.74,5.39,2.47,8.35"/>
							<path style="fill:none;stroke:#5B8A4C;stroke-width:2;stroke-linecap:round;stroke-miterlimit:10;" d="M55.83,397.9
								c-2.65,0.07-5.16,1.93-5.99,4.45"/>
							<path style="fill:none;stroke:#5B8A4C;stroke-width:2;stroke-linecap:round;stroke-miterlimit:10;" d="M37.25,397.94
								c2.55,0.53,4.52,3.05,4.42,5.64"/>
						</g>
						<g>
							<path style="fill:none;stroke:#5B8A4C;stroke-width:2;stroke-linecap:round;stroke-miterlimit:10;" d="M449.23,371.3
								c1.84,2.34,2.74,5.39,2.47,8.35"/>
							<path style="fill:none;stroke:#5B8A4C;stroke-width:2;stroke-linecap:round;stroke-miterlimit:10;" d="M461.1,374.88
								c-2.65,0.07-5.16,1.93-5.99,4.45"/>
							<path style="fill:none;stroke:#5B8A4C;stroke-width:2;stroke-linecap:round;stroke-miterlimit:10;" d="M442.52,374.92
								c2.55,0.53,4.52,3.05,4.42,5.64"/>
						</g>
						<g>
							<path style="fill:none;stroke:#5B8A4C;stroke-width:2;stroke-linecap:round;stroke-miterlimit:10;" d="M151.09,449.04
								c1.84,2.34,2.74,5.39,2.47,8.35"/>
							<path style="fill:none;stroke:#5B8A4C;stroke-width:2;stroke-linecap:round;stroke-miterlimit:10;" d="M162.96,452.62
								c-2.65,0.07-5.16,1.93-5.99,4.45"/>
							<path style="fill:none;stroke:#5B8A4C;stroke-width:2;stroke-linecap:round;stroke-miterlimit:10;" d="M144.39,452.66
								c2.55,0.53,4.52,3.05,4.42,5.64"/>
						</g>
						<g>
							<path style="fill:none;stroke:#5B8A4C;stroke-width:2;stroke-linecap:round;stroke-miterlimit:10;" d="M284.09,370.3
								c1.84,2.34,2.74,5.39,2.47,8.35"/>
							<path style="fill:none;stroke:#5B8A4C;stroke-width:2;stroke-linecap:round;stroke-miterlimit:10;" d="M295.96,373.88
								c-2.65,0.07-5.16,1.93-5.99,4.45"/>
							<path style="fill:none;stroke:#5B8A4C;stroke-width:2;stroke-linecap:round;stroke-miterlimit:10;" d="M277.39,373.92
								c2.55,0.53,4.52,3.05,4.42,5.64"/>
						</g>
					</g>
				</g>
				<g>
					<ellipse style="opacity:0.6196;fill:#63B2B8;enable-background:new    ;" cx="258.75" cy="414.8" rx="202.35" ry="19.5"/>
					<g>
						<g>
							<g>
								<g>
									<path style="fill:#633826;" d="M240.64,161.9c-1.45,2.04-3.03,3.98-4.74,5.81c-5.85,6.28-12.99,11.22-19.29,17.06
										c-0.44,0.41-0.88,0.82-1.31,1.24c-5.77,5.61-10.76,12.33-12.18,20.19c-1.54,8.46,2.18,18.3,10.14,21.56
										c-31.42-11.15-46.12-24.6-53.59-42.08c-7.48-17.48-6.34-39.53,6.48-53.58c8.69-9.52,21.19-14.19,32.75-20.07
										c1.13-0.57,2.25-1.16,3.36-1.76c9.09-4.94,18.02-12.37,21.92-21.54c0,0,0,0,0-0.01c1.44-3.37,2.19-6.97,2.02-10.77
										c14.04,9.7,23.55,25.69,25.38,42.66C253.15,135.09,249.1,150.07,240.64,161.9z"/>
									<path style="fill:#C7AA93;" d="M240.64,161.9c0.38-1.7,0.61-3.42,0.62-5.18c0.03-5.52-2.66-11.41-7.63-13.63
										c-0.24-0.1-0.48-0.2-0.73-0.29c-4.81-1.71-10.45,0.18-15.09-1.93c-7.41-3.38-7.35-13.73-11.01-21
										c-1.72-3.42-4.55-6.07-7.9-7.84c1.13-0.57,2.25-1.16,3.36-1.76c9.09-4.94,18.02-12.37,21.92-21.54c0,0,0,0,0-0.01
										c1.44-3.37,2.19-6.97,2.02-10.77c14.04,9.7,23.55,25.69,25.38,42.66C253.15,135.09,249.1,150.07,240.64,161.9z"/>
								</g>
								<path style="opacity:0.1882;fill:#FFFFFF;enable-background:new    ;" d="M240.64,161.9c-1.45,2.04-3.03,3.98-4.74,5.81
									c-5.85,6.28-12.99,11.22-19.29,17.06c-0.44,0.41-0.88,0.82-1.31,1.24c3.71-14.41,13.76-28.2,18.33-42.92
									c0.07-0.2,0.13-0.4,0.19-0.6c5.44-18.09,1.39-38.51-9.64-53.76c0,0,0,0,0-0.01c1.44-3.37,2.19-6.97,2.02-10.77
									c14.04,9.7,23.55,25.69,25.38,42.66C253.15,135.09,249.1,150.07,240.64,161.9z"/>
							</g>
							<g>
								<g>
									<path style="fill:#633826;" d="M409.75,414.52c-0.41,2.84-3.15,5.14-6.29,6.05c-3.13,0.9-6.58,0.6-9.76-0.17
										c-11.09-2.69-19.44-10.36-21.07-19.58c-2.61-14.86-8.91-27.99-15.02-41.26c-3.26-7.06-6.46-14.17-9.04-21.61
										c-0.48-1.37-1.94-2.15-3.33-1.74c-0.66,0.19-1.29,0.41-1.69,0.81c5.15-12.44,10.35-25.54,9.65-38.54
										c-0.12-2.48-0.47-4.97-1.07-7.44l41.24-28.3c4.25,22.42-6.35,43.06-9.04,63.83c-3.36,25.92,3.73,56.9,16.08,77.27
										c1.37,2.26,4.72,2.47,6.57,4.23C408.82,409.82,410.09,412.17,409.75,414.52z"/>
									<path style="fill:#52291D;" d="M379.58,296.34c-6.89,12.21-12.58,25.11-16.94,38.44c-2.3-2.46-3.62-5.82-3.62-9.19
										c-3.59,10.96-3.31,22.49-1.41,33.97c-3.26-7.06-6.46-14.17-9.04-21.61c-0.48-1.37-1.94-2.15-3.33-1.74
										c-0.66,0.19-1.29,0.41-1.69,0.81c5.15-12.44,10.35-25.54,9.65-38.54c3.55-2.58,7.21-5.13,11.39-6.46
										C368.98,290.62,374.12,290.77,379.58,296.34z"/>
									<path style="fill:#33130E;" d="M402.75,420.91c-0.76-3.31-3.78-5.96-7.16-6.28c1.96-1.31,4.81-1.05,6.5,0.59
										C403.77,416.87,404.11,419.72,402.75,420.91z"/>
									<path style="fill:#33130E;" d="M407.25,418.53c1.18-1.45,0.83-3.71-0.33-5.18c-1.16-1.47-2.91-2.32-4.63-3.05
										c2.08-0.84,4.71-0.01,5.93,1.87C409.44,414.05,409.14,416.79,407.25,418.53z"/>
								</g>
								<g>
									<g>
										<path style="fill:#633826;" d="M396.04,257.73c-0.26,2.84-0.67,5.66-1.22,8.45c-1.66,8.36-4.61,16.46-8.65,23.96
											c-2.42,4.51-5.24,8.8-8.42,12.81c-4.43,5.62-9.58,10.69-15.31,15c0.2-2.52,0.39-5.03,0.07-7.94
											c-8.06,11.82-22.96,17.55-37.26,17.81c-14.31,0.26-28.25-4.21-41.67-9.14c-19.64-7.23-38.87-15.59-56.36-24.24
											c-6.92-7.66-11.22-17.37-13.68-27.42c-0.26-1.02-0.49-2.04-0.7-3.06c-2.32-11.12-2.66-22.55-5.52-38.77
											c7.76-4.64,17.24-5.67,26.25-4.81c9.01,0.87,17.74,3.49,26.51,5.72c15.46,3.91,31.22,6.61,47.38,8.08
											c3,0.27,6.01,0.5,9.03,0.69c16.3,1.01,33.01,0.79,50.23-0.65C376.19,241.93,385.65,249.64,396.04,257.73z"/>
										<path style="fill:#52291D;" d="M396.04,257.73c-0.26,2.84-0.67,5.66-1.22,8.45c-3.88,0.01-7.75,0.59-11.61,0.99
											c-13.86,1.44-28.29,0.58-41.02-5.09c-11.74-5.24-21.85-15.04-25.7-27.21c16.3,1.01,33.01,0.79,50.23-0.65
											C376.19,241.93,385.65,249.64,396.04,257.73z"/>
									</g>
									<path style="fill:#C7AA93;" d="M377.97,301.6c-0.06,0.45-0.13,0.91-0.22,1.35c-4.43,5.62-9.58,10.69-15.31,15
										c0.2-2.52,0.39-5.03,0.07-7.94c-8.06,11.82-22.96,17.55-37.26,17.81c-14.31,0.26-28.25-4.21-41.67-9.14
										c-19.64-7.23-38.87-15.59-56.36-24.24c-6.92-7.66-11.22-17.37-13.68-27.42c8.67-2.27,18.45-0.19,26.68,3.81
										c10.14,4.92,19.36,11.56,28.35,18.35c32.27,24.35,56.89,15.95,82.73-1.61c5.95-4.05,14.43-5.91,20.57-2.16
										C377.08,288.59,378.76,295.55,377.97,301.6z"/>
								</g>
								<g>
									<path style="fill:#633826;" d="M319.51,346.99c-7.3,0.49-21.34,3.92-28.23,1.47c-6.89-2.45-13.02-8.56-13.16-15.88
										c-0.97,1.64-1.93,3.28-2.9,4.91c-2.88-9.17-1.82-19.22,1.19-28.34c3.01-9.13,7.88-17.51,12.52-25.68
										c4.97-4.85,10.32-9.59,16.83-12.01c6.51-2.42,14.46-2.09,19.67,2.49c6.78,5.96,6.69,16.81,3.22,25.14
										c-3.48,8.33-9.59,15.29-12.21,22.27c8.88,1.67,18.66,4.7,24.92,7.45c3.75,1.64,2.83,7.07-3.99,32.53
										c-1.22,4.56-4.54,9.04-9.12,10.18c-5.02,1.26-7.13-0.31-8.91-5.17C317.56,361.49,319.51,354.2,319.51,346.99z"/>
									<path style="fill:#33130E;" d="M322.02,370.38c1.51-3.84,2.07-8.05,1.61-12.16c1.59,2.06,2.26,4.79,1.82,7.36
										C325.01,368.14,323.45,370.49,322.02,370.38z"/>
									<path style="fill:#33130E;" d="M328.29,372.11c2.43-4,3.6-8.76,3.29-13.43c1.7,2.12,2.29,5.08,1.51,7.69
										C332.32,368.98,330.21,371.15,328.29,372.11z"/>
								</g>
							</g>
							<g>
								<path style="fill:#52291D;" d="M396.53,199.26c-1.19-18.76-3.11-37.47-5.74-56.08c-0.89,1.3-1.44,2.15-2.33,3.45
									c0-0.91-0.7-1.42,0.91-3.42c-23.75,3.5-36.99,32.69-37.62,56.55C365.87,199.66,379.99,199.56,396.53,199.26z"/>
								<g>
									<path style="fill:#BA506C;" d="M304.2,213.54c0,0,29.5,7.34,41.12,6.96c0,0-3.34,9.35-22.36,20.49l30.76,1.38l20.14-31.17
										L304.2,213.54z"/>
									<g>
										<path style="fill:#FFFFFF;" d="M345.12,214.03c0,0,5.05,6.46,5.69,6.48c0.64,0.02,3.2-9.31,3.2-9.31L345.12,214.03z"/>
										<path style="fill:#FFFFFF;" d="M355.64,228.9c0,0-6.62-4.84-7.23-4.69c-0.62,0.15-0.55,9.83-0.55,9.83L355.64,228.9z"/>
									</g>
								</g>
								<g>
									<path style="fill:#633826;" d="M419.89,247.82c2.79,0.6,5.34,2.44,6.91,4.97c-6.47-0.82-13.14,0.18-19.16,2.87
										c1.4,0.83,2.8,1.67,4.19,2.5c-20.98,6.68-37.44,5.87-58.28-1.3c-7.73-2.66-11.69-5.76-29.67-15.29
										c-0.34-0.18-0.69-0.37-1.05-0.56c2.24-0.62,4.46-1.42,6.63-2.31c10.19-4.18,21.18-5.78,29.18-22.67
										c-20.18,2.72-42.36,2.95-61.73-2.25c-0.72-7.82,0.17-16.78,3.08-23.96c4.38,1.13,9.15,1.83,14.02,2.02
										c6.72,0.27,13.61-0.43,19.88-2.29c10.82-3.2,17.19-9.83,28.35-11.03c5.08-0.56,10.92-0.19,16.76,1.09
										c6.98,1.51,13.98,4.31,19.68,8.41c16.76,12.04,22.93,32.16,35.47,47.28c-2.59,1.26-5.19,2.5-7.8,3.76
										c3.26-0.24,6.47-1.28,9.31-3C432.53,242.34,426.48,246.85,419.89,247.82z"/>
									<path style="fill:#75482D;" d="M379,179.61c-8.04,0.08-16.09,1.58-23.64,4.4c-7.67,2.88-14.85,7.13-22.8,9.14
										c-6.12,1.55-13.07,1.48-18.55-1.31c6.72,0.27,13.61-0.43,19.88-2.29c10.82-3.2,17.19-9.83,28.35-11.03
										C367.32,177.96,373.16,178.33,379,179.61z"/>
								</g>
								<g>
									<g>
										<path style="fill:#2A2330;" d="M347.953,198.615c0.774-2.449,2.525-4.079,3.91-3.641c1.385,0.438,1.88,2.778,1.106,5.227
											c-0.774,2.449-2.525,4.079-3.91,3.641C347.674,203.403,347.179,201.063,347.953,198.615z"/>
										<path style="fill:#52291D;" d="M345.01,189.11c3.36-3.18,7.47-5.8,12.06-6.41s9.66,1.13,12.14,5.04
											C360.52,187.36,351.76,188.4,345.01,189.11z"/>
									</g>
									<path style="fill:#2A2330;" d="M311.83,191.84c-2.41-0.88-4.51-2.47-6.95-3.27c-2.44-0.8-5.55-0.53-6.97,1.6
										c-0.78,1.17-0.88,2.65-0.95,4.06c-0.09,1.73-0.19,3.47-0.28,5.2c-0.05,0.92,0.15,2.15,1.07,2.24
										c0.42,0.04,0.81-0.22,1.16-0.46C303.27,198.15,307.62,195.1,311.83,191.84z"/>
								</g>
								<g>
									<path style="fill:#633826;" d="M378.71,189.94c12.76-14.74,26.1-29,39.97-42.75c-0.07,1.61-0.13,2.66-0.2,4.27
										c0.57-0.75,1.48-0.74,1.37-3.38c17.83,17.45,10.69,49.64-3.72,69.72C404.3,209.07,392.46,200.33,378.71,189.94z"/>
									<path style="fill:#C7AA93;" d="M414.78,211.67c10.86-14.87,14.06-35.47,6.72-52.36c-0.31,0.62-0.68,1.2-1.1,1.75
										c-0.59-0.68-1.17-1.37-1.76-2.05c-2.85,14.58-8.67,28.58-17.02,40.9c2.34-1.39,4.69-2.79,7.03-4.18
										c0.01,2.42-0.67,4.85-1.94,6.92c1.6-0.64,3.35-0.9,5.07-0.76c-0.78,1.19-1.94,2.14-3.26,2.68
										C410.93,206.11,412.93,208.28,414.78,211.67z"/>
								</g>
							</g>
						</g>
						<g>
							<g>
								<path style="fill:#781936;" d="M257.75,286.93c0,0,11.45,15.7,13.58,29.89c2.14,14.19-0.96,54.97-0.96,54.97
									s-0.67-5.33-20.39-3.56c-19.72,1.77-9.4,6-60.99,6s-78.65-8.74-78.65-8.74V260.12l40.2-35.2L257.75,286.93z"/>
								<g>
									<path style="fill:#E8DAB7;" d="M142.57,282.43c-3.98,2.29-26.36,1.91-33.11-0.71c-0.17-5.84,0.91-12.68,0.89-18.48
										c5.1-1.07,10.51-2.37,15.31-4.3c1.64-7.56,3.65-15.93,6.95-22.92c3.5-7.4,8.75-15.02,16.76-16.72
										c1.92-0.41,4.13-0.36,5.57,0.98c0.8,0.75,1.24,1.8,1.55,2.85c1.37,4.69,0.45,9.71-0.59,14.49
										C152.88,251.48,147.47,269.14,142.57,282.43z"/>
									<g>
										<path style="fill:none;stroke:#D48E3D;stroke-width:6;stroke-linecap:round;stroke-miterlimit:10;" d="M102.65,260.97
											c0,0-14.79,7.53-14.79,37.3"/>
										<g>
											<g>
												<path style="fill:#EDB966;" d="M73.45,295.95h66.5l-10.02,44.61l-40.98-0.52c-5.66-0.07-10.4-4.3-11.12-9.91
													L73.45,295.95z"/>
												<path style="fill:#DEA054;" d="M102.65,295.95h66.5l-10.02,44.61l-40.98-0.52c-5.66-0.07-10.4-4.3-11.12-9.91
													L102.65,295.95z"/>
											</g>
											<path style="fill:#AAEBF0;" d="M134.67,290.94c0,0-56.58-4.35-61-0.86c-4.43,3.5-11.67,11.76-8.59,13.4
												c3.08,1.64,5.93-1.67,9.63,0.67c3.71,2.35,5.06,4.58,11.06,2.33c6-2.24,12.12-6.21,16.95-3.55
												c4.82,2.66,18.22-8.59,22.63-6.99s10.35,5.46,10.35,5.46L134.67,290.94z"/>
										</g>
									</g>
									<path style="fill:none;stroke:#D48E3D;stroke-width:6;stroke-linecap:round;stroke-miterlimit:10;" d="M113.24,260.97
										c0,0,14.79,7.53,14.79,37.3"/>
									<g>
										<path style="fill:#FAC18E;" d="M107.97,259.39c-7.14-6.96-17.59-10.36-27.46-8.93c-1.26,0.18-2.56,0.46-3.56,1.26
											c-0.99,0.8-1.56,2.25-0.98,3.39c0.47,0.91,1.5,1.36,2.45,1.73c2.96,1.15,5.96,2.21,9.53,3.21
											c-5.15-0.21-10.36,1.5-14.39,4.72c-1.73,1.38-3.34,3.8-2.12,5.64c1.15,1.74,3.75,1.4,5.77,0.85
											c-2.41,1.07-3.05,4.27-2.25,5.68c1.05,1.85,3.21,2.32,6.57,1.58c-2.15,1.96-1.78,3.62-0.86,4.55
											c2.8,2.8,13.84-1.94,15.8-1.93c3.11,0.02,5.88,2.21,8.98,2.34c4.75,0.2,8.47-4.65,8.82-9.39
											C114.62,269.35,113.05,264.34,107.97,259.39z"/>
										<path style="fill:none;stroke:#B54B2D;stroke-linecap:round;stroke-miterlimit:10;" d="M77.97,270.9
											c3.67-1.86,7.69-3.02,11.78-3.42"/>
										<path style="fill:none;stroke:#B54B2D;stroke-linecap:round;stroke-miterlimit:10;" d="M82.03,278.61
											c3.21-1.9,6.71-3.31,10.33-4.17"/>
										<path style="fill:#FAC18E;stroke:#B54B2D;stroke-linecap:round;stroke-miterlimit:10;" d="M105.01,260.49
											c-3.42-1.7-7.3-2.78-11.28-3.12c-0.95-0.08-1.93-0.12-2.85,0.09c-0.92,0.22-1.78,0.73-2.12,1.47
											c-0.59,1.3,0.61,2.68,1.86,3.62c1.94,1.45,4.2,2.61,6.63,3.4c0.37,1.57,0.07,4.81,5.31,7.19"/>
									</g>
								</g>
								<g>
									<g>
										<g>
											<g>
												<path style="fill:#943843;" d="M237.23,400.37c0,0-34.07,22.25-37.28,19.13c-0.5-0.48-0.68-1.24-0.62-2.2
													c0.18-3.66,3.75-10.07,5.88-13.59l-12.25-17.92l-7.46-10.9l-0.59-0.86l0.38-0.16l30.3-13.01l11.92,25.47l2.82,6.03
													l4.28,4.98L237.23,400.37z"/>
												<path style="fill:#611D2E;" d="M237.22,400.37c0,0-34.07,22.25-37.28,19.12c-0.5-0.48-0.68-1.24-0.62-2.2
													c6.37-2.66,20.86-9.29,35.28-19.96L237.22,400.37z"/>
											</g>
											<path style="fill:#8A2F3F;" d="M227.51,386.33c-4.86,0.92-10.33,0.11-15.44-0.74c-6.34-1.06-13.26-1.98-19.11,0.2
												l-7.46-10.9c-0.08-0.34-0.14-0.68-0.21-1.02l30.3-13.01L227.51,386.33z"/>
										</g>
										<g>
											<g>
												<path style="fill:#943843;" d="M165.74,394.02l-2.59,17.55l0.83,6.5l0.51,3.98c0,0-40.69-0.23-41.64-4.6
													c-0.16-0.68,0.11-1.41,0.69-2.18c2.17-2.95,8.69-6.33,12.4-8.09l-0.32-20.35l-0.24-15.61l32.85,5.94L165.74,394.02z"/>
												<path style="fill:#611D2E;" d="M164.49,422.05c0,0-40.69-0.22-41.65-4.6c-0.15-0.67,0.12-1.41,0.7-2.18
													c6.78,1.29,22.53,3.75,40.44,2.8L164.49,422.05z"/>
											</g>
											<path style="fill:#8A2F3F;" d="M168.23,377.16l-2.49,16.86c-10.35,1.7-21.42-0.99-30.12-7.19l-0.24-15.61L168.23,377.16z
												"/>
										</g>
									</g>
									<g>
										<g>
											<path style="fill:#298D94;" d="M256.69,361.42c0,0-5.26,6.7-13.56,12.21c-4.04,2.69-8.81,5.09-14.05,6.28
												c-0.65,0.16-1.31,0.29-1.97,0.4c-14.9,2.47-12.8-5.85-40.44,2.99c-0.3,0.1-0.61,0.2-0.92,0.3
												c-5.49,1.79-10.67,2.97-15.59,3.62c-14.63,1.95-26.94-0.71-38.27-5.64c-3.25-1.41-6.42-3-9.54-4.73
												c-2.29-1.27-4.43-2.47-6.38-3.57c-8.26-4.69-13.32-7.81-13.32-7.81c0.27-2.07,0.56-4.11,0.88-6.13
												c0.2-1.26,0.41-2.52,0.63-3.76c1.44-8.2,3.28-15.94,5.37-23.18c0.43-1.5,0.87-2.98,1.33-4.44
												c3.66-11.8,7.95-22.17,12.14-30.9c0.76-1.57,1.51-3.09,2.26-4.56c8.85-17.39,16.72-27.12,16.72-27.12l4.2-0.3h0.01
												l11.39-0.8l47.06-3.31c7.03,6.91,13.93,17.06,20.29,28.28c0.94,1.64,1.85,3.3,2.75,4.97c3.87,7.16,7.5,14.61,10.79,21.83
												c0.89,1.93,1.75,3.85,2.58,5.74c3.53,8.01,6.6,15.54,9.06,21.85l2.36,6.15C255.17,356.94,256.69,361.42,256.69,361.42z"
												/>
											<path style="opacity:0.2196;fill:#166380;enable-background:new    ;" d="M243.13,373.63
												c-4.04,2.69-8.81,5.09-14.05,6.28c-0.83-2.81-1.73-5.85-2.68-9.06c-0.48-1.62-0.98-3.28-1.48-4.98
												c-3.09-10.33-6.62-22.07-10.17-33.8c-0.48-1.58-0.96-3.16-1.44-4.73c-3.2-10.59-6.37-21.02-9.18-30.24
												c-0.37-1.22-0.74-2.43-1.1-3.61c-5.09-16.75-8.74-28.66-8.74-28.66l11.08-1.77c2.2,4.37,6.32,15.57,11.17,29.59
												c0.51,1.5,1.04,3.02,1.57,4.58c2.91,8.53,6.04,17.88,9.12,27.24c0.55,1.68,1.1,3.35,1.65,5.02
												c3.31,10.08,6.52,20,9.33,28.77c0.52,1.6,1.02,3.16,1.5,4.67C240.96,366.83,242.11,370.43,243.13,373.63z"/>
											<path style="opacity:0.2196;fill:#166380;enable-background:new    ;" d="M186.67,383.3c-0.3,0.1-0.61,0.2-0.92,0.3
												c-5.49,1.79-10.67,2.97-15.59,3.62l0.1-13.53l0.04-4.43l0.23-29.24l0.04-5.26l0.25-32.02l0.06-7.41l0.23-29.74l12.1-0.23
												l0.8,27.32l0.22,7.56l0.85,28.85l0.15,4.99l0.92,31.44l0.13,4.32L186.67,383.3z"/>
											<path style="fill:#166380;" d="M252.47,349.79c-3.75,4.83-8.04,9.25-12.76,13.14c-0.77,0.64-1.54,1.26-2.33,1.86
												c-3.33,2.54-7.02,4.89-10.98,6.06c-1.76,0.53-3.58,0.83-5.44,0.81c-6.41-0.06-12.26-3.84-18.63-4.55
												c-5.45-0.61-10.77,1.04-16.05,2.73c-1.49,0.48-2.98,0.96-4.47,1.4c-3.79,1.11-7.65,1.92-11.55,2.45
												c-11.61,1.59-23.56,0.75-34.97-1.96c-0.39-0.09-0.79-0.19-1.18-0.3c-5.51-1.36-10.9-3.15-16.15-5.28
												c-4.93-1.99-9.75-4.28-14.43-6.81c0.2-1.26,0.41-2.52,0.63-3.76c4.39,3.16,9.43,5.52,14.7,7.35
												c4.22,1.48,8.58,2.62,12.89,3.56c1.1,0.24,2.2,0.47,3.3,0.69c11.61,2.31,23.61,3.49,35.25,2.08
												c4.18-0.51,8.32-1.35,12.37-2.6c1.16-0.36,2.32-0.75,3.48-1.14c4.87-1.65,9.76-3.39,14.85-3.09
												c6.33,0.37,12.19,3.89,18.53,4.06c1.84,0.05,3.64-0.18,5.39-0.62c4.87-1.26,9.35-4.23,13.29-7.61
												c0.52-0.44,1.03-0.89,1.53-1.35c4.15-3.79,8.07-8.22,10.37-13.27L252.47,349.79z"/>
											<path style="fill:#166380;" d="M241.05,321.79c-3.5,3.33-7.67,5.94-12.17,7.7c-4.37,1.72-9.07,2.63-13.77,2.59
												c-0.12,0-0.24,0-0.36-0.01c-7.71-0.13-15.55-2.55-23.02-0.62c-2.27,0.59-4.4,1.56-6.5,2.63
												c-1.63,0.8-3.24,1.67-4.88,2.44c-3.16,1.49-6.45,2.65-9.82,3.5c-9.62,2.46-19.87,2.48-29.75,0.99h-0.01
												c-0.25-0.03-0.51-0.07-0.76-0.11c-4.77-0.76-9.47-1.85-14.12-3.16c-5.52-1.54-10.96-3.39-16.36-5.34
												c0.43-1.5,0.87-2.98,1.33-4.44c2.92,1.4,6.22,2.25,9.38,3.03c2.34,0.57,4.7,1.14,7.07,1.69
												c4.85,1.12,9.76,2.13,14.67,2.85c9.66,1.41,19.34,1.66,28.59-0.77c1.3-0.34,2.58-0.73,3.86-1.18
												c3.6-1.27,7.11-2.97,10.65-4.49c4.58-1.96,9.2-3.6,14.14-3.55c4.01,0.05,7.91,1.23,11.89,1.65
												c0.73,0.08,1.47,0.13,2.2,0.15c4.77,0.13,9.56-0.9,13.92-2.87c4.31-1.95,8.2-4.83,11.24-8.42
												C239.36,317.98,240.22,319.9,241.05,321.79z"/>
											<path style="fill:#166380;" d="M227.68,294.22c-1.03,0.71-2.17,1.26-3.34,1.68c-2.03,0.73-4.11,1.13-6.23,1.33
												c-4.57,0.42-9.3-0.07-13.98-0.13c-1.3-0.02-2.6-0.01-3.88,0.07c-5.44,0.33-10.72,1.77-16.02,3.07
												c-1.22,0.31-2.45,0.6-3.68,0.87c-3.21,0.71-6.46,1.25-9.73,1.63c-7.2,0.87-14.49,0.95-21.72,0.26
												c-4.35-0.4-8.67-1.08-12.93-2.05c-4.47-0.99-8.88-2.29-13.17-3.89c0.76-1.57,1.51-3.09,2.26-4.56
												c3.87,1.82,7.94,3.23,12.1,4.2c4.18,0.99,8.47,1.54,12.76,1.63c4.7,0.13,9.4-0.3,14-1.28c2.27-0.48,4.52-1.1,6.76-1.72
												c3.61-0.99,7.23-1.99,10.94-2.45c0.73-0.09,1.46-0.16,2.19-0.2c6.32-0.45,12.67,0.46,19.02,0.81
												c1.51,0.09,3.01,0.14,4.52,0.14c2.98,0,6.05-0.3,8.99-0.98c3.01-0.7,5.89-1.8,8.39-3.4
												C225.87,290.89,226.78,292.55,227.68,294.22z"/>
											<path style="opacity:0.2196;fill:#166380;enable-background:new    ;" d="M157.64,263.99l-0.06,0.29l-7.46,34.05
												L149.1,303l-7.12,32.53l-1.2,5.48h-0.01l-5.72,26.17l-0.94,4.25l-2.22,10.15c-3.25-1.41-6.42-3-9.54-4.73
												c-2.29-1.27-4.43-2.47-6.38-3.57l1.99-7.13l0.9-3.22l7.03-25.19l1.42-5.06l8.86-31.73l1.19-4.25l8.82-31.62h0.01
												l0.49-1.77L157.64,263.99z"/>
										</g>
										<g>
											<path style="fill:#FFFDF0;" d="M145.56,231.68c0,0-8.68,33.2-4.92,35.76c5.48,3.74,43.63,8.86,66.45-1.35l-2.31-50.37
												l-52.49-2.69L145.56,231.68z"/>
											<path style="fill:#FFFDF0;" d="M204.13,265.91l22.2,85.63c0,0-80.63,20.25-121.68-8.26c0,0,20.33-60.76,37.46-77.9
												L204.13,265.91z"/>
											<path style="fill:#F0E8CC;" d="M140.46,267.13c0,0,35.7,9.5,67.43-1.75l2.69,2.85c0,0-30.59,13.32-72.41,1.56
												L140.46,267.13z"/>
										</g>
									</g>
								</g>
								<g>
									<path style="fill:#E8DAB7;" d="M208.74,288.94c0,0,26.85,1.55,29.06-7.16l-21.76-30.57c0,0-4.62,12.16-14.19,18.04
										L208.74,288.94z"/>
									<g>
										<path style="fill:#F5A871;" d="M186.37,273.06c-2.43,1.85-4.17,4.59-4.81,7.57c-0.64,2.98-0.19,6.19,1.26,8.88
											c0.73,1.36,1.95,2.71,3.49,2.69c1.96-0.03,3.15-2.14,3.72-4.01c1.17-3.81,1.48-7.88,0.9-11.83
											c-0.11-0.77-0.28-1.59-0.83-2.15C189.55,273.65,188.51,273.52,186.37,273.06z"/>
										<g>
											<path style="fill:#FAC18E;" d="M212.5,283.15c-1.15-3.89-2.33-7.84-4.51-11.26c-2.18-3.42-5.54-6.3-9.54-6.96
												c-4.69-0.77-9.41,1.63-12.8,4.97c-1.22,1.2-2.36,2.62-2.66,4.3c-0.3,1.68,0.5,3.67,3.31,4.95
												c-1.26,1.38-1.44,3.63-0.43,5.2c1.01,1.57,3.14,2.32,5.33,2.34c0.13,1.71,1.14,3.34,2.62,4.21
												c1.48,0.88,3.39,0.99,5.12,0.76c0.12,1.13,1.36,1.87,2.5,1.85c1.14-0.02,2.18-0.59,3.18-1.14
												c1.78-0.99,3.57-1.99,5.07-3.36S213.27,285.75,212.5,283.15z"/>
											<g>
												<path style="fill:none;stroke:#B54B2D;stroke-linecap:round;stroke-miterlimit:10;" d="M186.81,278.79
													c4.04-3.6,8.78-6.41,13.87-8.24"/>
												<path style="fill:none;stroke:#B54B2D;stroke-linecap:round;stroke-miterlimit:10;" d="M191.62,285.96
													c3.24-3.22,7.13-5.78,11.37-7.48"/>
												<path style="fill:none;stroke:#B54B2D;stroke-linecap:round;stroke-miterlimit:10;" d="M199.12,290.43
													c2.12-2.47,4.7-4.54,7.57-6.07"/>
											</g>
										</g>
									</g>
								</g>
								<g>
									<path style="fill:#AD1A37;" d="M115.65,259.74c23.32-12.57,40.71-23.77,53.63-47.67c5.34-13.65-18.97-8.6-26.97-6.74
										c-16.8,14.35-28.9,34.09-33.99,55.63C110.8,260.79,113.42,260.94,115.65,259.74z"/>
									<g>
										<path style="fill:#AD1A37;" d="M271.3,316.81c-1.33-6.74-4.85-12.95-10.15-17.34c-5.29-4.39-11.59-7.37-17.7-10.53
											c-17.04-8.82-33.26-19.56-46.7-33.28c-13.43-13.71-24-25.13-27.47-43.59c-4.72-12.7,14.1-14.59,22.76-14.62
											c9.65,4.23,18.19,10.47,25.79,17.8c5.64,5.43,10.77,11.47,15.45,17.73c16.27,21.76,27.44,45.95,33.27,63.37
											C269.6,305.46,271.2,312.72,271.3,316.81z"/>
										<path style="fill:#C22736;" d="M266.55,296.35c-18.69-22.1-37.37-44.2-56.06-66.3c3.7-4.17,6.24-9.34,7.34-14.8
											c5.64,5.43,10.77,11.47,15.45,17.73C249.55,254.74,260.72,278.93,266.55,296.35z"/>
									</g>
									<g>
										<g>
											<path style="fill:#C22736;" d="M172.51,211.35c4.22-0.47,8.39,2.3,11.01,6.08c2.62,3.78,3.92,8.45,4.91,13.06
												c0.99,4.61,1.73,9.32,3.43,13.69c-6.96-0.44-13.72-4.61-17.78-10.98C170.01,226.82,168.73,218.39,172.51,211.35z"/>
											<path style="fill:#AD1A37;" d="M174.81,216.78c5.8,3.6,9.83,9.92,10.63,16.69c-4.42-4.6-7.99-10.03-10.45-15.92
												c1.63,8.11,5.77,15.69,11.71,21.46c-7.32-4.27-12.29-12.31-12.85-20.77c-0.03-0.43-0.04-0.88,0.14-1.27
												C174.16,216.57,174.6,216.26,174.81,216.78z"/>
										</g>
										<g>
											<path style="fill:#C22736;" d="M166.21,211.16c-7.83-0.48-15.04,5.32-18.26,12.47c-3.22,7.15-3.14,15.35-2.13,23.12
												C159.1,240.85,167.94,226.17,166.21,211.16z"/>
											<path style="fill:#AD1A37;" d="M163.19,215.21c-6.61,3.42-11.51,9.96-12.93,17.27c4.87-4.84,9.28-10.15,13.14-15.82
												c-3.43,8.19-6.94,16.52-12.59,23.37c6.37-5.82,10.96-13.55,13-21.93C164.09,216.96,164.31,215.72,163.19,215.21z"/>
										</g>
										<path style="fill:#DE404B;" d="M164.11,209.58c1.19-0.44,7.56-1.48,11.16,0.78c2.05,1.29,1.78,5.97,0.43,7.98
											c-1.3,1.93-9.28,1.32-11.72,0.46C159.98,217.4,160.78,210.8,164.11,209.58z"/>
									</g>
								</g>
							</g>
							<g>
								<path style="fill:#781936;" d="M191.39,202.35c0,0,22.55,2.69,34.47-4.05c0,0,7.19-4,3.91-14.63s-11.91-36.34-11.91-36.34
									l-14.96-36.01l-28.49-1.42l-50.88,77.42c0,0-0.83,17.54,9.88,19.49c10.71,1.95,35.74-2.75,35.74-2.75L191.39,202.35z"/>
								<g>
									<path style="fill:#F5A871;" d="M203.94,172.83c1.79-2.15,3.89-4.38,6.66-4.77c3.06-0.42,6.09,1.75,7.28,4.6
										c1.18,2.85,0.77,6.17-0.47,9c-2.39,5.47-7.89,9.45-13.83,10.01C204.1,185.09,204.62,178.5,203.94,172.83z"/>
									<path style="fill:#FAC18E;" d="M209.88,177.98c3.02,5.4,1.44,12.52-2.52,17.27c-3.97,4.75-9.87,7.48-15.83,9.16
										c-10.01,2.84-20.68,2.94-30.72,0.64c-12.01-2.74-23.11-8.92-31.07-17.94c-0.52-11.53,1.38-23.14,5.43-33.94
										c2.23-5.93,5.11-11.62,8.6-16.91c9.84-14.92,24.48-26.63,45.32-30.27C210.38,124.77,214.34,140.01,209.88,177.98z"/>
									<path style="fill:#F5A871;" d="M159.71,145.99c5-0.33,9.88-2.14,14.09-4.86c5.15,1.05,10.68,0.16,15.25-2.45
										c4.57-2.61,8.13-6.93,10.08-12.08c4.6,2.46,8.39,6.39,10.66,11.1c-1.37-5.86-4.14-11.39-8.01-16
										c-0.77-0.92-1.64-1.84-2.77-2.24c-1.91-0.67-3.96,0.28-5.77,1.19c-10.67,5.35-21.8,9.79-33.22,13.24
										c-1.04,0.31-2.22,0.75-2.57,1.78c-0.21,0.61-0.05,1.28,0.11,1.91C158.2,140.15,158.85,142.71,159.71,145.99z"/>
									<g>
										<path style="fill:#D6851A;" d="M142.92,149.98c10.88-0.02,21.71-4.07,30.01-11.05c5.72,0.91,11.77-0.58,16.42-4.03
											c4.65-3.45,7.83-8.82,9.08-14.1c5.05,5.89,9.01,12.71,12.07,20.2c2.23-7.39,1.67-15.62-1.74-22.54
											c-1.9-3.85-4.67-7.32-8.22-9.74c-4.66-3.18-10.44-4.42-16.08-4.46c-10.9-0.07-21.8,4.29-29.45,12.05
											C147.36,124.07,143.11,135.15,142.92,149.98z"/>
										<path style="fill:#BA5E13;" d="M157.63,146.7c7.27-15.46,27.02-32.24,36.78-30.12c5.83,1.27,15.34,13.37,18.81,22.25
											c0.1-8.61-0.7-17.81-5.96-24.63c-5.73-7.43-16.1-10.48-25.28-8.54c-9.18,1.94-17.04,8.34-22,16.3
											C155.03,129.93,152.76,139.34,157.63,146.7z"/>
									</g>
									<path style="fill:#F5A871;" d="M160.81,205.05c-12.01-2.74-23.11-8.92-31.07-17.94c-0.52-11.53,1.38-23.14,5.43-33.94
										c3.58,0.46,7.06,1.81,10.11,3.76l3.67,9.98c-2.49,6.31-4.99,12.62-7.49,18.92c-0.56,1.4-1.12,2.87-0.93,4.36
										c0.26,1.98,1.79,3.54,3.3,4.85C148.82,199.36,154.61,202.75,160.81,205.05z"/>
									<g>
										<g>
											<path style="fill:#D6851A;" d="M146.09,167.38c7.07-4.21,15.21-6.61,23.44-6.9c-1.56-2.69-4.77-4.17-7.88-4.17
												s-6.11,1.31-8.63,3.13C150.5,161.27,148.39,163.59,146.09,167.38z"/>
											<path style="fill:#D6851A;" d="M195.73,158.28c4.64-2.11,10.34-1.7,14.63,1.06c-0.28-3.39-3.24-6.36-6.63-6.65
												C200.34,152.4,196.92,154.83,195.73,158.28z"/>
										</g>
										<g>
											<circle style="fill:#30405C;" cx="160.81" cy="188.18" r="3.49"/>
											<circle style="fill:#30405C;" cx="203.58" cy="182.6" r="3.49"/>
										</g>
										<g>
											<path style="fill:none;stroke:#B54B2D;stroke-linecap:round;stroke-miterlimit:10;" d="M188.24,185
												c0.78,2.04,0.69,4.4-0.25,6.37"/>
											<path style="fill:#FFFFFF;" d="M185.28,199.25c-0.04-1.3-1.14-2.4-2.4-2.73c-1.26-0.33-2.6-0.02-3.78,0.54
												c-0.9,0.43-1.76,1.02-2.28,1.87c-0.53,0.85-0.67,1.98-0.17,2.84c0.62,1.08,2.01,1.45,3.26,1.53
												c1.01,0.06,2.06-0.02,2.96-0.47C183.78,202.38,185.34,201.61,185.28,199.25z"/>
										</g>
									</g>
								</g>
								<g>
									<g>
										<path style="fill:#C22736;" d="M223.62,199.44c12.64-9.77-1.87-19.56-9.23-49.88c-7.36-30.34-13.93-35.65-21.88-36.51
											c-7.94-0.87-17.21,2.32-31.27,28.75c-14.07,26.43-15.36,36.32-24.37,45.34c-9.01,9.01-9.36,13.04-2.08,17.23
											c7.28,4.19,22.01-0.42,22.01-0.42c5.75,1.85,11.33,2.35,11.33,2.35s-26.29,7.31-36.03,7.31c-7.71,0-10.44-5.49-11.24-7.77
											c-0.21-0.6-0.29-0.98-0.29-0.98c-5.06-3.11-9.23-7.81-12.53-13.29c-7.22-11.98-10.31-27.71-9.53-38.7
											c0.97-13.61,5.02-38.64,30.81-52.31c4.58-2.43,9.83-4.5,15.88-6.09c44.65-11.69,67.07,14.9,71.07,30.17
											c2.76,10.51,4.05,21.2,7.04,33.49c0,0.01,0,0.02,0.01,0.03c1.35,5.58,3.05,11.49,5.4,17.85
											C236.06,195.94,224.18,199.29,223.62,199.44z"/>
										<path style="fill:#E03F4A;" d="M223.36,157.93c-0.71-1.81-1.32-3.65-1.85-5.49c-2.26-7.89-3.43-16.15-6.75-23.66
											c-7.57-17.09-25.64-27.85-44.1-30.82c-13.72-2.2-27.67-0.69-41.29,2.4c4.58-2.43,9.83-4.5,15.88-6.09
											c44.65-11.69,67.07,14.9,71.07,30.17C219.08,134.95,220.37,145.64,223.36,157.93z"/>
									</g>
									<path style="fill:#AD1A37;" d="M130.78,164.8c-14.67,23.51-10.16,39.86-10.16,39.86c-5.06-3.11-9.23-7.81-12.53-13.29
										c3.13,4.7,6.4,6.52,7.86,4.69C118.33,193.09,117.71,179.08,130.78,164.8z"/>
								</g>
							</g>
						</g>
					</g>
				</g>
			</g>
			<g>
				<g>
					<g>
						<path style="fill:#40735C;" d="M268.97,510.98c-71.23,0.28-142.47,0.55-212.57-1.24c0.13-3.25,1.02-6.33,2.48-9.13
							c6.07-11.62,21.95-18.38,33.99-12.27c3.11-12.3,15.17-21.74,27.86-21.79c12.69-0.06,24.83,9.27,28.05,21.55
							c8.28-8.28,23.94-7.04,30.82,2.44c7.95-20.54,32.06-33.35,53.53-28.44c2.58,0.59,5.08,1.43,7.48,2.48
							C258.22,472.3,270.53,491.67,268.97,510.98z"/>
						<path style="fill:#50856B;" d="M240.61,464.58c-25.15-0.79-47.93,9.36-60.13,35.55c-10.66-7.64-26.48-7.02-36.53,1.42
							c-3.21-10.49-13.73-17.05-24.39-16.8s-20.86,7.29-24.87,17.17c-11.54-6.38-24.99-6.33-35.81-1.31
							c6.07-11.62,21.95-18.38,33.99-12.27c3.11-12.3,15.17-21.74,27.86-21.79c12.69-0.06,24.83,9.27,28.05,21.55
							c8.28-8.28,23.94-7.04,30.82,2.44c7.95-20.54,32.06-33.35,53.53-28.44C235.71,462.69,238.21,463.53,240.61,464.58z"/>
					</g>
					<g>
						<path style="fill:none;stroke:#305C4D;stroke-width:5;stroke-linecap:round;stroke-miterlimit:10;" d="M224.14,483.31
							c-0.01,4.53-0.02,9.07-0.03,13.6"/>
						<path style="fill:none;stroke:#305C4D;stroke-width:5;stroke-linecap:round;stroke-miterlimit:10;" d="M114.69,493.28
							c0.71,4.48,1.42,8.96,2.12,13.43"/>
					</g>
				</g>
				<g>
					<g>
						<path style="fill:#316355;" d="M525.34,428.18c0.11,25.65-0.71,51.31-2.46,76.88c-95.11,17.41-192.23,11.53-277.67,3.21
							c-3.7-9.36-1.73-21.19,4.73-28.41c6.46-7.22,16.99-9.36,25.29-5.14c-1.46-5.66-1.23-11.73,0.36-17.33
							c2.21-7.77,7.02-14.64,13.53-18.28c11.2-6.27,26.16-2.26,33.64,9.02c9.91-8.07,24.44-8.1,34.38-0.07
							c-0.76-10.48,3.48-21.26,10.89-27.68c7.4-6.41,17.75-8.28,26.57-4.78c1.13-14.82,13.02-27.62,26.24-28.24
							c13.21-0.62,26.01,11.03,28.23,25.7c8.82-6.91,22.85-2.4,27.1,8.7c0.77-11.34,6.4-22.51,15.42-27.67
							c9.01-5.17,21.22-3.21,27.64,5.58c0.59,0.8,1.12,1.64,1.59,2.51C524.95,409.63,525.3,419.24,525.34,428.18z"/>
						<path style="fill:#417D68;" d="M520.82,402.18c-18.91,1.57-37.09,14-43.92,31.89c-6.96-8.92-19.95-12.57-30.54-8.57
							c-2.63-12.02-13.81-20.91-25.13-20.09c-11.31,0.82-21.1,11.23-21.22,22.57c-5.85-0.95-10.61-1.99-15.17-1.02
							c-7.18,1.53-12.56,7.88-15,14.8c-2.44,6.92-2.45,14.43-2.44,21.77c-14.75-7.55-30.3-8.14-42.92-2.13
							c-6.31-12.52-20.64-17.41-32.89-14.56c-6.3,1.47-12.42,5.32-16,10.55c2.21-7.77,7.02-14.64,13.53-18.28
							c11.2-6.27,26.16-2.26,33.64,9.02c9.91-8.07,24.44-8.1,34.38-0.07c-0.76-10.48,3.48-21.26,10.89-27.68
							c7.4-6.41,17.75-8.28,26.57-4.78c1.13-14.82,13.02-27.62,26.24-28.24c13.21-0.62,26.01,11.03,28.23,25.7
							c8.82-6.91,22.85-2.4,27.1,8.7c0.77-11.34,6.4-22.51,15.42-27.67c9.01-5.17,21.22-3.21,27.64,5.58
							C519.82,400.47,520.35,401.31,520.82,402.18z"/>
					</g>
					<g>
						<path style="fill:none;stroke:#234F49;stroke-width:5;stroke-linecap:round;stroke-miterlimit:10;" d="M296.53,467.82
							c1.07,4.41,2.14,8.81,3.2,13.22"/>
						<path style="fill:none;stroke:#234F49;stroke-width:5;stroke-linecap:round;stroke-miterlimit:10;" d="M337.28,483.36
							c0.57,4.5,1.13,9,1.7,13.49"/>
						<path style="fill:none;stroke:#234F49;stroke-width:5;stroke-linecap:round;stroke-miterlimit:10;" d="M389.12,457.31
							c0.01,4.53,0.02,9.07,0.03,13.6"/>
						<path style="fill:none;stroke:#234F49;stroke-width:5;stroke-linecap:round;stroke-miterlimit:10;" d="M427.21,479.32
							c-0.06,4.53-0.11,9.07-0.17,13.6"/>
						<path style="fill:none;stroke:#234F49;stroke-width:5;stroke-linecap:round;stroke-miterlimit:10;" d="M464.21,445.04
							c-0.06,4.53-0.11,9.07-0.17,13.6"/>
						<path style="fill:none;stroke:#234F49;stroke-width:5;stroke-linecap:round;stroke-miterlimit:10;" d="M496.09,467.69
							c-0.64,4.49-1.28,8.98-1.91,13.47"/>
					</g>
				</g>
			</g>
		</g>
	</g>
</g>
</svg>
